<svg width="32" height="32" viewBox="0 0 32 32" fill="none" xmlns="http://www.w3.org/2000/svg">
<g filter="url(#filter0_ii_3805_259)">
<path d="M15.2914 18.2315C15.4164 18.3555 15.4677 18.5363 15.4219 18.7063C14.811 20.9722 13.6348 23.0965 11.9057 24.8329C10.6357 26.1129 9.1657 27.0929 7.5957 27.7729C7.0957 27.9929 7.0957 28.6929 7.5957 28.9029C12.9457 31.1529 19.3957 29.9429 23.5257 25.2729C28.0257 20.1829 28.1757 12.3629 23.8457 7.12286C20.3357 2.87286 14.9957 1.28286 10.1157 2.32286C9.5957 2.43286 9.4757 3.13286 9.9157 3.43286C11.2057 4.31286 12.3757 5.42286 13.3557 6.81286C14.7578 8.80757 15.5788 11.0896 15.8309 13.4163C15.8448 13.6025 15.854 13.7993 15.8558 14.003C15.8636 14.7845 15.2733 15.2856 14.7931 15.6932C14.665 15.8019 14.5447 15.904 14.4457 16.003C14.0657 16.393 14.0657 17.023 14.4557 17.403L15.2914 18.2315Z" fill="url(#paint0_radial_3805_259)"/>
<path d="M15.2914 18.2315C15.4164 18.3555 15.4677 18.5363 15.4219 18.7063C14.811 20.9722 13.6348 23.0965 11.9057 24.8329C10.6357 26.1129 9.1657 27.0929 7.5957 27.7729C7.0957 27.9929 7.0957 28.6929 7.5957 28.9029C12.9457 31.1529 19.3957 29.9429 23.5257 25.2729C28.0257 20.1829 28.1757 12.3629 23.8457 7.12286C20.3357 2.87286 14.9957 1.28286 10.1157 2.32286C9.5957 2.43286 9.4757 3.13286 9.9157 3.43286C11.2057 4.31286 12.3757 5.42286 13.3557 6.81286C14.7578 8.80757 15.5788 11.0896 15.8309 13.4163C15.8448 13.6025 15.854 13.7993 15.8558 14.003C15.8636 14.7845 15.2733 15.2856 14.7931 15.6932C14.665 15.8019 14.5447 15.904 14.4457 16.003C14.0657 16.393 14.0657 17.023 14.4557 17.403L15.2914 18.2315Z" fill="url(#paint1_radial_3805_259)"/>
<path d="M15.2914 18.2315C15.4164 18.3555 15.4677 18.5363 15.4219 18.7063C14.811 20.9722 13.6348 23.0965 11.9057 24.8329C10.6357 26.1129 9.1657 27.0929 7.5957 27.7729C7.0957 27.9929 7.0957 28.6929 7.5957 28.9029C12.9457 31.1529 19.3957 29.9429 23.5257 25.2729C28.0257 20.1829 28.1757 12.3629 23.8457 7.12286C20.3357 2.87286 14.9957 1.28286 10.1157 2.32286C9.5957 2.43286 9.4757 3.13286 9.9157 3.43286C11.2057 4.31286 12.3757 5.42286 13.3557 6.81286C14.7578 8.80757 15.5788 11.0896 15.8309 13.4163C15.8448 13.6025 15.854 13.7993 15.8558 14.003C15.8636 14.7845 15.2733 15.2856 14.7931 15.6932C14.665 15.8019 14.5447 15.904 14.4457 16.003C14.0657 16.393 14.0657 17.023 14.4557 17.403L15.2914 18.2315Z" fill="url(#paint2_radial_3805_259)"/>
</g>
<path d="M15.2914 18.2315C15.4164 18.3555 15.4677 18.5363 15.4219 18.7063C14.811 20.9722 13.6348 23.0965 11.9057 24.8329C10.6357 26.1129 9.1657 27.0929 7.5957 27.7729C7.0957 27.9929 7.0957 28.6929 7.5957 28.9029C12.9457 31.1529 19.3957 29.9429 23.5257 25.2729C28.0257 20.1829 28.1757 12.3629 23.8457 7.12286C20.3357 2.87286 14.9957 1.28286 10.1157 2.32286C9.5957 2.43286 9.4757 3.13286 9.9157 3.43286C11.2057 4.31286 12.3757 5.42286 13.3557 6.81286C14.7578 8.80757 15.5788 11.0896 15.8309 13.4163C15.8448 13.6025 15.854 13.7993 15.8558 14.003C15.8636 14.7845 15.2733 15.2856 14.7931 15.6932C14.665 15.8019 14.5447 15.904 14.4457 16.003C14.0657 16.393 14.0657 17.023 14.4557 17.403L15.2914 18.2315Z" fill="url(#paint3_radial_3805_259)"/>
<path d="M15.2914 18.2315C15.4164 18.3555 15.4677 18.5363 15.4219 18.7063C14.811 20.9722 13.6348 23.0965 11.9057 24.8329C10.6357 26.1129 9.1657 27.0929 7.5957 27.7729C7.0957 27.9929 7.0957 28.6929 7.5957 28.9029C12.9457 31.1529 19.3957 29.9429 23.5257 25.2729C28.0257 20.1829 28.1757 12.3629 23.8457 7.12286C20.3357 2.87286 14.9957 1.28286 10.1157 2.32286C9.5957 2.43286 9.4757 3.13286 9.9157 3.43286C11.2057 4.31286 12.3757 5.42286 13.3557 6.81286C14.7578 8.80757 15.5788 11.0896 15.8309 13.4163C15.8448 13.6025 15.854 13.7993 15.8558 14.003C15.8636 14.7845 15.2733 15.2856 14.7931 15.6932C14.665 15.8019 14.5447 15.904 14.4457 16.003C14.0657 16.393 14.0657 17.023 14.4557 17.403L15.2914 18.2315Z" fill="url(#paint4_radial_3805_259)"/>
<path d="M18.3162 3.04367C17.767 4.25799 16.5449 5.10291 15.1256 5.10291C13.3554 5.10291 11.8922 3.78883 11.6582 2.08298C13.9033 1.86084 16.1938 2.18014 18.3162 3.04367Z" fill="url(#paint5_radial_3805_259)"/>
<path d="M18.3162 3.04367C17.767 4.25799 16.5449 5.10291 15.1256 5.10291C13.3554 5.10291 11.8922 3.78883 11.6582 2.08298C13.9033 1.86084 16.1938 2.18014 18.3162 3.04367Z" fill="url(#paint6_radial_3805_259)"/>
<path d="M18.3162 3.04367C17.767 4.25799 16.5449 5.10291 15.1256 5.10291C13.3554 5.10291 11.8922 3.78883 11.6582 2.08298C13.9033 1.86084 16.1938 2.18014 18.3162 3.04367Z" fill="url(#paint7_radial_3805_259)"/>
<path d="M26.835 13.8296C27.1926 16.1596 26.968 18.5667 26.1676 20.7982C24.384 20.6372 22.9863 19.1381 22.9863 17.3125C22.9863 15.3795 24.5533 13.8125 26.4863 13.8125C26.604 13.8125 26.7203 13.8183 26.835 13.8296Z" fill="url(#paint8_radial_3805_259)"/>
<path d="M26.835 13.8296C27.1926 16.1596 26.968 18.5667 26.1676 20.7982C24.384 20.6372 22.9863 19.1381 22.9863 17.3125C22.9863 15.3795 24.5533 13.8125 26.4863 13.8125C26.604 13.8125 26.7203 13.8183 26.835 13.8296Z" fill="url(#paint9_radial_3805_259)"/>
<path d="M26.835 13.8296C27.1926 16.1596 26.968 18.5667 26.1676 20.7982C24.384 20.6372 22.9863 19.1381 22.9863 17.3125C22.9863 15.3795 24.5533 13.8125 26.4863 13.8125C26.604 13.8125 26.7203 13.8183 26.835 13.8296Z" fill="url(#paint10_radial_3805_259)"/>
<path d="M26.835 13.8296C27.1926 16.1596 26.968 18.5667 26.1676 20.7982C24.384 20.6372 22.9863 19.1381 22.9863 17.3125C22.9863 15.3795 24.5533 13.8125 26.4863 13.8125C26.604 13.8125 26.7203 13.8183 26.835 13.8296Z" fill="url(#paint11_radial_3805_259)"/>
<g filter="url(#filter1_f_3805_259)">
<path d="M15.5556 29.0927C16.9584 29.0927 18.0956 27.9555 18.0956 26.5527C18.0956 25.1499 16.9584 24.0127 15.5556 24.0127C14.1528 24.0127 13.0156 25.1499 13.0156 26.5527C13.0156 27.9555 14.1528 29.0927 15.5556 29.0927Z" stroke="url(#paint12_linear_3805_259)" stroke-width="0.2"/>
</g>
<path d="M15.5556 29.0927C16.9584 29.0927 18.0956 27.9555 18.0956 26.5527C18.0956 25.1499 16.9584 24.0127 15.5556 24.0127C14.1528 24.0127 13.0156 25.1499 13.0156 26.5527C13.0156 27.9555 14.1528 29.0927 15.5556 29.0927Z" fill="url(#paint13_linear_3805_259)"/>
<path d="M15.5556 29.0927C16.9584 29.0927 18.0956 27.9555 18.0956 26.5527C18.0956 25.1499 16.9584 24.0127 15.5556 24.0127C14.1528 24.0127 13.0156 25.1499 13.0156 26.5527C13.0156 27.9555 14.1528 29.0927 15.5556 29.0927Z" fill="url(#paint14_radial_3805_259)"/>
<path d="M15.5556 29.0927C16.9584 29.0927 18.0956 27.9555 18.0956 26.5527C18.0956 25.1499 16.9584 24.0127 15.5556 24.0127C14.1528 24.0127 13.0156 25.1499 13.0156 26.5527C13.0156 27.9555 14.1528 29.0927 15.5556 29.0927Z" fill="url(#paint15_radial_3805_259)"/>
<g filter="url(#filter2_f_3805_259)">
<path d="M19.6071 8.16295C20.4742 8.16295 21.1771 7.46004 21.1771 6.59295C21.1771 5.72586 20.4742 5.02295 19.6071 5.02295C18.74 5.02295 18.0371 5.72586 18.0371 6.59295C18.0371 7.46004 18.74 8.16295 19.6071 8.16295Z" stroke="url(#paint16_linear_3805_259)" stroke-width="0.3"/>
</g>
<g filter="url(#filter3_d_3805_259)">
<path d="M19.6071 8.16295C20.4742 8.16295 21.1771 7.46004 21.1771 6.59295C21.1771 5.72586 20.4742 5.02295 19.6071 5.02295C18.74 5.02295 18.0371 5.72586 18.0371 6.59295C18.0371 7.46004 18.74 8.16295 19.6071 8.16295Z" fill="url(#paint17_radial_3805_259)"/>
<path d="M19.6071 8.16295C20.4742 8.16295 21.1771 7.46004 21.1771 6.59295C21.1771 5.72586 20.4742 5.02295 19.6071 5.02295C18.74 5.02295 18.0371 5.72586 18.0371 6.59295C18.0371 7.46004 18.74 8.16295 19.6071 8.16295Z" fill="url(#paint18_radial_3805_259)"/>
<path d="M19.6071 8.16295C20.4742 8.16295 21.1771 7.46004 21.1771 6.59295C21.1771 5.72586 20.4742 5.02295 19.6071 5.02295C18.74 5.02295 18.0371 5.72586 18.0371 6.59295C18.0371 7.46004 18.74 8.16295 19.6071 8.16295Z" fill="url(#paint19_radial_3805_259)"/>
</g>
<g filter="url(#filter4_f_3805_259)">
<path fill-rule="evenodd" clip-rule="evenodd" d="M18.8329 18.2C19.2433 18.2566 19.53 18.6351 19.4734 19.0454C19.3027 20.2832 18.2384 21.223 16.9805 21.223C16.5663 21.223 16.2305 20.8872 16.2305 20.473C16.2305 20.0587 16.5663 19.723 16.9805 19.723C17.4825 19.723 17.9182 19.3427 17.9875 18.8405C18.0441 18.4302 18.4226 18.1434 18.8329 18.2Z" fill="url(#paint20_linear_3805_259)"/>
</g>
<path fill-rule="evenodd" clip-rule="evenodd" d="M19.1689 18.0599C19.5792 18.1165 19.866 18.495 19.8094 18.9053C19.6386 20.1431 18.5744 21.0828 17.3164 21.0828C16.9022 21.0828 16.5664 20.747 16.5664 20.3328C16.5664 19.9186 16.9022 19.5828 17.3164 19.5828C17.8184 19.5828 18.2542 19.2026 18.3234 18.7003C18.38 18.29 18.7586 18.0033 19.1689 18.0599Z" fill="url(#paint21_radial_3805_259)"/>
<g filter="url(#filter5_f_3805_259)">
<path fill-rule="evenodd" clip-rule="evenodd" d="M20.8236 8.64295C20.8391 8.38089 21.064 8.18097 21.3261 8.1964C23.1434 8.30341 24.6335 9.85919 24.5258 11.6881C24.5104 11.9502 24.2854 12.1501 24.0234 12.1347C23.7613 12.1192 23.5614 11.8943 23.5768 11.6322C23.6536 10.3295 22.5655 9.22165 21.2702 9.14538C21.0081 9.12995 20.8082 8.905 20.8236 8.64295Z" fill="#9C6D2F"/>
</g>
<g filter="url(#filter6_i_3805_259)">
<path fill-rule="evenodd" clip-rule="evenodd" d="M20.8672 8.55273C20.8672 8.27659 21.091 8.05273 21.3672 8.05273C23.2822 8.05273 24.8472 9.6055 24.8472 11.5327C24.8472 11.8089 24.6233 12.0327 24.3472 12.0327C24.071 12.0327 23.8472 11.8089 23.8472 11.5327C23.8472 10.16 22.7321 9.05273 21.3672 9.05273C21.091 9.05273 20.8672 8.82888 20.8672 8.55273Z" fill="#3F294D"/>
<path fill-rule="evenodd" clip-rule="evenodd" d="M20.8672 8.55273C20.8672 8.27659 21.091 8.05273 21.3672 8.05273C23.2822 8.05273 24.8472 9.6055 24.8472 11.5327C24.8472 11.8089 24.6233 12.0327 24.3472 12.0327C24.071 12.0327 23.8472 11.8089 23.8472 11.5327C23.8472 10.16 22.7321 9.05273 21.3672 9.05273C21.091 9.05273 20.8672 8.82888 20.8672 8.55273Z" fill="url(#paint22_linear_3805_259)"/>
</g>
<g filter="url(#filter7_f_3805_259)">
<path fill-rule="evenodd" clip-rule="evenodd" d="M17.3933 13.3577C17.7719 12.2083 18.8534 11.3823 20.1257 11.3823C21.3386 11.3823 22.3828 12.1254 22.8038 13.1984C22.9552 13.5839 22.7652 14.0192 22.3796 14.1705C21.994 14.3218 21.5588 14.1319 21.4075 13.7463C21.2085 13.2393 20.7127 12.8823 20.1257 12.8823C19.518 12.8823 18.9994 13.2764 18.818 13.827C18.6884 14.2204 18.2644 14.4343 17.871 14.3047C17.4776 14.1751 17.2637 13.7511 17.3933 13.3577Z" fill="url(#paint23_linear_3805_259)"/>
<path fill-rule="evenodd" clip-rule="evenodd" d="M17.3933 13.3577C17.7719 12.2083 18.8534 11.3823 20.1257 11.3823C21.3386 11.3823 22.3828 12.1254 22.8038 13.1984C22.9552 13.5839 22.7652 14.0192 22.3796 14.1705C21.994 14.3218 21.5588 14.1319 21.4075 13.7463C21.2085 13.2393 20.7127 12.8823 20.1257 12.8823C19.518 12.8823 18.9994 13.2764 18.818 13.827C18.6884 14.2204 18.2644 14.4343 17.871 14.3047C17.4776 14.1751 17.2637 13.7511 17.3933 13.3577Z" fill="url(#paint24_radial_3805_259)"/>
</g>
<path fill-rule="evenodd" clip-rule="evenodd" d="M17.7136 12.9983C18.0923 11.8489 19.1737 11.0229 20.446 11.0229C21.6589 11.0229 22.7031 11.766 23.1242 12.839C23.2755 13.2246 23.0855 13.6598 22.7 13.8111C22.3144 13.9624 21.8791 13.7725 21.7278 13.3869C21.5289 12.8799 21.033 12.5229 20.446 12.5229C19.8383 12.5229 19.3197 12.917 19.1383 13.4676C19.0087 13.861 18.5847 14.0749 18.1913 13.9453C17.7979 13.8157 17.584 13.3917 17.7136 12.9983Z" fill="url(#paint25_radial_3805_259)"/>
<g filter="url(#filter8_f_3805_259)">
<path d="M21.3984 8.39774C21.8932 8.37691 23.0625 8.78047 23.5781 9.34297C24.2734 9.97579 24.4922 11.007 24.4922 11.4602" stroke="url(#paint26_linear_3805_259)" stroke-width="0.4" stroke-linecap="round"/>
</g>
<g filter="url(#filter9_f_3805_259)">
<path d="M18.4141 13.382C18.4505 12.856 19.0891 11.8258 20.3516 11.6633C21.6141 11.5008 22.3828 12.4602 22.5391 13.0383" stroke="url(#paint27_linear_3805_259)" stroke-width="0.4" stroke-linecap="round"/>
</g>
<g filter="url(#filter10_f_3805_259)">
<path d="M19.284 18.4722C19.0978 19.6571 18.1836 20.4189 17.3457 20.4189" stroke="url(#paint28_linear_3805_259)" stroke-width="0.4" stroke-linecap="round"/>
</g>
<defs>
<filter id="filter0_ii_3805_259" x="7.2207" y="1.51465" width="20.0293" height="28.4854" filterUnits="userSpaceOnUse" color-interpolation-filters="sRGB">
<feFlood flood-opacity="0" result="BackgroundImageFix"/>
<feBlend mode="normal" in="SourceGraphic" in2="BackgroundImageFix" result="shape"/>
<feColorMatrix in="SourceAlpha" type="matrix" values="0 0 0 0 0 0 0 0 0 0 0 0 0 0 0 0 0 0 127 0" result="hardAlpha"/>
<feOffset dy="-0.5"/>
<feGaussianBlur stdDeviation="0.5"/>
<feComposite in2="hardAlpha" operator="arithmetic" k2="-1" k3="1"/>
<feColorMatrix type="matrix" values="0 0 0 0 0.803922 0 0 0 0 0.482353 0 0 0 0 0.407843 0 0 0 1 0"/>
<feBlend mode="normal" in2="shape" result="effect1_innerShadow_3805_259"/>
<feColorMatrix in="SourceAlpha" type="matrix" values="0 0 0 0 0 0 0 0 0 0 0 0 0 0 0 0 0 0 127 0" result="hardAlpha"/>
<feOffset dx="0.25"/>
<feGaussianBlur stdDeviation="0.25"/>
<feComposite in2="hardAlpha" operator="arithmetic" k2="-1" k3="1"/>
<feColorMatrix type="matrix" values="0 0 0 0 0.8 0 0 0 0 0.615686 0 0 0 0 0.321569 0 0 0 1 0"/>
<feBlend mode="normal" in2="effect1_innerShadow_3805_259" result="effect2_innerShadow_3805_259"/>
</filter>
<filter id="filter1_f_3805_259" x="12.716" y="23.7126" width="5.6793" height="5.68027" filterUnits="userSpaceOnUse" color-interpolation-filters="sRGB">
<feFlood flood-opacity="0" result="BackgroundImageFix"/>
<feBlend mode="normal" in="SourceGraphic" in2="BackgroundImageFix" result="shape"/>
<feGaussianBlur stdDeviation="0.1" result="effect1_foregroundBlur_3805_259"/>
</filter>
<filter id="filter2_f_3805_259" x="17.5867" y="4.57305" width="4.03945" height="4.03994" filterUnits="userSpaceOnUse" color-interpolation-filters="sRGB">
<feFlood flood-opacity="0" result="BackgroundImageFix"/>
<feBlend mode="normal" in="SourceGraphic" in2="BackgroundImageFix" result="shape"/>
<feGaussianBlur stdDeviation="0.15" result="effect1_foregroundBlur_3805_259"/>
</filter>
<filter id="filter3_d_3805_259" x="14.0371" y="5.02295" width="11.1406" height="11.1401" filterUnits="userSpaceOnUse" color-interpolation-filters="sRGB">
<feFlood flood-opacity="0" result="BackgroundImageFix"/>
<feColorMatrix in="SourceAlpha" type="matrix" values="0 0 0 0 0 0 0 0 0 0 0 0 0 0 0 0 0 0 127 0" result="hardAlpha"/>
<feOffset dy="4"/>
<feGaussianBlur stdDeviation="2"/>
<feComposite in2="hardAlpha" operator="out"/>
<feColorMatrix type="matrix" values="0 0 0 0 0 0 0 0 0 0 0 0 0 0 0 0 0 0 0.25 0"/>
<feBlend mode="normal" in2="BackgroundImageFix" result="effect1_dropShadow_3805_259"/>
<feBlend mode="normal" in="SourceGraphic" in2="effect1_dropShadow_3805_259" result="shape"/>
</filter>
<filter id="filter4_f_3805_259" x="15.7305" y="17.6929" width="4.25" height="4.03027" filterUnits="userSpaceOnUse" color-interpolation-filters="sRGB">
<feFlood flood-opacity="0" result="BackgroundImageFix"/>
<feBlend mode="normal" in="SourceGraphic" in2="BackgroundImageFix" result="shape"/>
<feGaussianBlur stdDeviation="0.25" result="effect1_foregroundBlur_3805_259"/>
</filter>
<filter id="filter5_f_3805_259" x="20.5223" y="7.8958" width="4.30898" height="4.53945" filterUnits="userSpaceOnUse" color-interpolation-filters="sRGB">
<feFlood flood-opacity="0" result="BackgroundImageFix"/>
<feBlend mode="normal" in="SourceGraphic" in2="BackgroundImageFix" result="shape"/>
<feGaussianBlur stdDeviation="0.15" result="effect1_foregroundBlur_3805_259"/>
</filter>
<filter id="filter6_i_3805_259" x="20.8672" y="7.90273" width="4.13047" height="4.12998" filterUnits="userSpaceOnUse" color-interpolation-filters="sRGB">
<feFlood flood-opacity="0" result="BackgroundImageFix"/>
<feBlend mode="normal" in="SourceGraphic" in2="BackgroundImageFix" result="shape"/>
<feColorMatrix in="SourceAlpha" type="matrix" values="0 0 0 0 0 0 0 0 0 0 0 0 0 0 0 0 0 0 127 0" result="hardAlpha"/>
<feOffset dx="0.15" dy="-0.15"/>
<feGaussianBlur stdDeviation="0.25"/>
<feComposite in2="hardAlpha" operator="arithmetic" k2="-1" k3="1"/>
<feColorMatrix type="matrix" values="0 0 0 0 0.258824 0 0 0 0 0.168627 0 0 0 0 0.188235 0 0 0 1 0"/>
<feBlend mode="normal" in2="shape" result="effect1_innerShadow_3805_259"/>
</filter>
<filter id="filter7_f_3805_259" x="16.8555" y="10.8823" width="6.5" height="3.95996" filterUnits="userSpaceOnUse" color-interpolation-filters="sRGB">
<feFlood flood-opacity="0" result="BackgroundImageFix"/>
<feBlend mode="normal" in="SourceGraphic" in2="BackgroundImageFix" result="shape"/>
<feGaussianBlur stdDeviation="0.25" result="effect1_foregroundBlur_3805_259"/>
</filter>
<filter id="filter8_f_3805_259" x="20.9492" y="7.94678" width="3.99219" height="3.96338" filterUnits="userSpaceOnUse" color-interpolation-filters="sRGB">
<feFlood flood-opacity="0" result="BackgroundImageFix"/>
<feBlend mode="normal" in="SourceGraphic" in2="BackgroundImageFix" result="shape"/>
<feGaussianBlur stdDeviation="0.125" result="effect1_foregroundBlur_3805_259"/>
</filter>
<filter id="filter9_f_3805_259" x="17.8148" y="11.0448" width="5.32344" height="2.93721" filterUnits="userSpaceOnUse" color-interpolation-filters="sRGB">
<feFlood flood-opacity="0" result="BackgroundImageFix"/>
<feBlend mode="normal" in="SourceGraphic" in2="BackgroundImageFix" result="shape"/>
<feGaussianBlur stdDeviation="0.2" result="effect1_foregroundBlur_3805_259"/>
</filter>
<filter id="filter10_f_3805_259" x="16.7465" y="17.872" width="3.13789" height="3.14717" filterUnits="userSpaceOnUse" color-interpolation-filters="sRGB">
<feFlood flood-opacity="0" result="BackgroundImageFix"/>
<feBlend mode="normal" in="SourceGraphic" in2="BackgroundImageFix" result="shape"/>
<feGaussianBlur stdDeviation="0.2" result="effect1_foregroundBlur_3805_259"/>
</filter>
<radialGradient id="paint0_radial_3805_259" cx="0" cy="0" r="1" gradientUnits="userSpaceOnUse" gradientTransform="translate(20.5078 9.44495) rotate(107.864) scale(21.5965 15.2632)">
<stop stop-color="#FFC65D"/>
<stop offset="1" stop-color="#FFAE4E"/>
</radialGradient>
<radialGradient id="paint1_radial_3805_259" cx="0" cy="0" r="1" gradientUnits="userSpaceOnUse" gradientTransform="translate(8.32522 28.23) rotate(-22.0609) scale(13.8094 6.89923)">
<stop stop-color="#FFC050"/>
<stop offset="1" stop-color="#FFC050" stop-opacity="0"/>
</radialGradient>
<radialGradient id="paint2_radial_3805_259" cx="0" cy="0" r="1" gradientUnits="userSpaceOnUse" gradientTransform="translate(23.1702 26.235) rotate(-119.859) scale(9.69288 12.7438)">
<stop stop-color="#FFA454"/>
<stop offset="1" stop-color="#FFA454" stop-opacity="0"/>
</radialGradient>
<radialGradient id="paint3_radial_3805_259" cx="0" cy="0" r="1" gradientUnits="userSpaceOnUse" gradientTransform="translate(7.75778 20.5074) rotate(-34.5714) scale(22.1219 22.8372)">
<stop offset="0.774146" stop-color="#FFF29E" stop-opacity="0"/>
<stop offset="1" stop-color="#FFF29E"/>
</radialGradient>
<radialGradient id="paint4_radial_3805_259" cx="0" cy="0" r="1" gradientUnits="userSpaceOnUse" gradientTransform="translate(23.164 16.1949) rotate(-159.274) scale(2.47251 2.70273)">
<stop stop-color="#FF9D5A"/>
<stop offset="1" stop-color="#FF9D5A" stop-opacity="0"/>
</radialGradient>
<radialGradient id="paint5_radial_3805_259" cx="0" cy="0" r="1" gradientUnits="userSpaceOnUse" gradientTransform="translate(13.3827 4.94495) rotate(-65.3712) scale(3.85025 15.1368)">
<stop offset="0.169368" stop-color="#FABF62"/>
<stop offset="1" stop-color="#FFDF81"/>
</radialGradient>
<radialGradient id="paint6_radial_3805_259" cx="0" cy="0" r="1" gradientUnits="userSpaceOnUse" gradientTransform="translate(14.8827 2.2262) rotate(132.455) scale(2.98605 4.6211)">
<stop offset="0.86124" stop-color="#FFD678" stop-opacity="0"/>
<stop offset="1" stop-color="#FFD678"/>
</radialGradient>
<radialGradient id="paint7_radial_3805_259" cx="0" cy="0" r="1" gradientUnits="userSpaceOnUse" gradientTransform="translate(15.1795 2.01465) rotate(71.0145) scale(3.26592 5.64008)">
<stop offset="0.835085" stop-color="#FFCB6E" stop-opacity="0"/>
<stop offset="0.978655" stop-color="#FFCB6E"/>
</radialGradient>
<radialGradient id="paint8_radial_3805_259" cx="0" cy="0" r="1" gradientUnits="userSpaceOnUse" gradientTransform="translate(26.9999 15.5383) rotate(137.35) scale(4.70464 5.32062)">
<stop stop-color="#FFDB7D"/>
<stop offset="1" stop-color="#FFC46D"/>
</radialGradient>
<radialGradient id="paint9_radial_3805_259" cx="0" cy="0" r="1" gradientUnits="userSpaceOnUse" gradientTransform="translate(22.6334 16.5071) rotate(9.74364) scale(3.13903 4.47076)">
<stop stop-color="#FFA566"/>
<stop offset="1" stop-color="#FFA566" stop-opacity="0"/>
</radialGradient>
<radialGradient id="paint10_radial_3805_259" cx="0" cy="0" r="1" gradientUnits="userSpaceOnUse" gradientTransform="translate(26.7271 16.8821) rotate(139.917) scale(4.12524 4.32527)">
<stop offset="0.801733" stop-color="#FFDA83" stop-opacity="0"/>
<stop offset="0.960633" stop-color="#FFDA83"/>
</radialGradient>
<radialGradient id="paint11_radial_3805_259" cx="0" cy="0" r="1" gradientUnits="userSpaceOnUse" gradientTransform="translate(27.2584 19.0383) rotate(-118.42) scale(5.61407 4.83478)">
<stop offset="0.915451" stop-color="#E8A051" stop-opacity="0"/>
<stop offset="0.979581" stop-color="#E8A051"/>
</radialGradient>
<linearGradient id="paint12_linear_3805_259" x1="17.4687" y1="24.5807" x2="13.6353" y2="28.5503" gradientUnits="userSpaceOnUse">
<stop stop-color="#F49D4C"/>
<stop offset="1" stop-color="#FFCF5D"/>
</linearGradient>
<linearGradient id="paint13_linear_3805_259" x1="17.5271" y1="25.0672" x2="13.0156" y2="28.4447" gradientUnits="userSpaceOnUse">
<stop offset="0.271965" stop-color="#FAA660"/>
<stop offset="1" stop-color="#FFBF66"/>
</linearGradient>
<radialGradient id="paint14_radial_3805_259" cx="0" cy="0" r="1" gradientUnits="userSpaceOnUse" gradientTransform="translate(17.7362 25.2066) rotate(146.904) scale(5.20825 5.68062)">
<stop offset="0.805181" stop-color="#FFE596" stop-opacity="0"/>
<stop offset="0.958261" stop-color="#FFE596"/>
</radialGradient>
<radialGradient id="paint15_radial_3805_259" cx="0" cy="0" r="1" gradientUnits="userSpaceOnUse" gradientTransform="translate(13.4407 28.2973) rotate(-36.8699) scale(5.44845 4.74593)">
<stop offset="0.805714" stop-color="#D78555" stop-opacity="0"/>
<stop offset="0.976429" stop-color="#D78555"/>
</radialGradient>
<linearGradient id="paint16_linear_3805_259" x1="17.6967" y1="5.25745" x2="21.1771" y2="7.69495" gradientUnits="userSpaceOnUse">
<stop stop-color="#FFE07C"/>
<stop offset="1" stop-color="#FFCA66"/>
</linearGradient>
<radialGradient id="paint17_radial_3805_259" cx="0" cy="0" r="1" gradientUnits="userSpaceOnUse" gradientTransform="translate(18.4467 6.8512) rotate(-15.5767) scale(3.16497)">
<stop stop-color="#FFEC9D"/>
<stop offset="0.777273" stop-color="#F8BC5B"/>
</radialGradient>
<radialGradient id="paint18_radial_3805_259" cx="0" cy="0" r="1" gradientUnits="userSpaceOnUse" gradientTransform="translate(19.4311 6.71057) rotate(-31.6398) scale(1.81694)">
<stop offset="0.878938" stop-color="#DDA64B" stop-opacity="0"/>
<stop offset="1" stop-color="#DDA64B"/>
</radialGradient>
<radialGradient id="paint19_radial_3805_259" cx="0" cy="0" r="1" gradientUnits="userSpaceOnUse" gradientTransform="translate(19.1342 6.9137) rotate(-33.2544) scale(2.27954 2.79439)">
<stop offset="0.652885" stop-color="#DDA64B" stop-opacity="0"/>
<stop offset="1" stop-color="#DDA64B"/>
</radialGradient>
<linearGradient id="paint20_linear_3805_259" x1="18.8155" y1="18.9213" x2="16.2305" y2="21.223" gradientUnits="userSpaceOnUse">
<stop stop-color="#BE8435"/>
<stop offset="1" stop-color="#BF7A37"/>
</linearGradient>
<radialGradient id="paint21_radial_3805_259" cx="0" cy="0" r="1" gradientUnits="userSpaceOnUse" gradientTransform="translate(17.4299 21.0828) rotate(-39.9571) scale(3.03661 2.03443)">
<stop stop-color="#301E3A"/>
<stop offset="1" stop-color="#332E2C"/>
</radialGradient>
<linearGradient id="paint22_linear_3805_259" x1="20.4155" y1="8.05273" x2="24.3061" y2="9.56982" gradientUnits="userSpaceOnUse">
<stop stop-color="#3B2D31"/>
<stop offset="1" stop-color="#3B2D31" stop-opacity="0"/>
</linearGradient>
<linearGradient id="paint23_linear_3805_259" x1="21.5079" y1="12.6479" x2="15.1642" y2="14.3425" gradientUnits="userSpaceOnUse">
<stop stop-color="#A36231"/>
<stop offset="1" stop-color="#A36231" stop-opacity="0"/>
</linearGradient>
<radialGradient id="paint24_radial_3805_259" cx="0" cy="0" r="1" gradientUnits="userSpaceOnUse" gradientTransform="translate(19.4923 12.1792) rotate(40.7704) scale(3.44548 6.40211)">
<stop offset="0.776021" stop-color="#CD7F3F" stop-opacity="0"/>
<stop offset="1" stop-color="#CD7F3F"/>
</radialGradient>
<radialGradient id="paint25_radial_3805_259" cx="0" cy="0" r="1" gradientUnits="userSpaceOnUse" gradientTransform="translate(20.426 13.3668) rotate(-90) scale(2.15625 6.11501)">
<stop offset="0.398551" stop-color="#3D2A48"/>
<stop offset="1" stop-color="#3B302E"/>
</radialGradient>
<linearGradient id="paint26_linear_3805_259" x1="21.1172" y1="8.43674" x2="24.6484" y2="11.6711" gradientUnits="userSpaceOnUse">
<stop offset="0.203742" stop-color="#644F76" stop-opacity="0.5"/>
<stop offset="0.519835" stop-color="#644F76" stop-opacity="0"/>
<stop offset="0.800665" stop-color="#644F76"/>
</linearGradient>
<linearGradient id="paint27_linear_3805_259" x1="18.0078" y1="13.632" x2="20.8491" y2="15.7178" gradientUnits="userSpaceOnUse">
<stop stop-color="#3F3445"/>
<stop offset="1" stop-color="#5D5168"/>
</linearGradient>
<linearGradient id="paint28_linear_3805_259" x1="17.8874" y1="20.6474" x2="19.9309" y2="20.0284" gradientUnits="userSpaceOnUse">
<stop stop-color="#554C58" stop-opacity="0"/>
<stop offset="1" stop-color="#554C58"/>
</linearGradient>
</defs>
</svg>
