<svg width="32" height="32" viewBox="0 0 32 32" fill="none" xmlns="http://www.w3.org/2000/svg">
<g filter="url(#filter0_i_3805_156)">
<path d="M13.5525 3.11442C15.0838 1.3908 17.1657 1.66513 18.4978 3.11442L19.3103 4.05503C19.5916 4.36108 19.9986 4.51979 20.4129 4.48491L21.8572 4.05503C23.826 3.63299 25.615 5.10174 25.615 7.38299V8.24236C25.6568 8.71149 26.0666 9.0295 26.4898 9.23618L27.7947 9.78143C29.6824 10.7033 30.1541 12.8908 28.7791 14.7267L28.3885 15.2424C28.0381 15.716 28.1101 16.3378 28.4588 16.8127L28.8494 17.3596C30.2713 19.1096 29.4695 21.5105 27.4611 22.3493L26.3377 22.8185C25.9146 22.9952 25.7489 23.2985 25.6697 23.7502L25.5916 25.2189C25.3181 27.2346 23.528 28.145 22.0916 27.9416L20.3806 27.4846C19.9697 27.4264 19.4588 27.5627 19.1853 27.9924L18.5681 28.8361C17.0369 30.5627 14.9702 30.2756 13.9275 29.2658L12.789 27.8869C12.4909 27.5982 12.115 27.3517 11.6652 27.5215L9.94315 27.9924C8.52148 28.1937 6.84744 27.1008 6.57949 25.6901L6.38065 23.6486C6.29994 23.2237 6.01974 22.8636 5.62771 22.6809L4.41973 22.2658C2.6032 21.4193 1.99477 19.3699 3.03778 17.6586L3.71863 16.7171C3.99211 16.2684 3.97911 15.7015 3.68535 15.2658L3.17753 14.5471C1.74006 12.5002 2.73392 10.2123 4.86403 9.52646L5.33383 9.37518C5.85236 9.20822 6.35324 8.7776 6.39633 8.23456L6.50095 6.91631C6.67075 4.77657 8.62327 3.54875 10.6769 4.17308L11.3416 4.37513C11.9822 4.62513 12.4841 4.41223 12.8338 4.03138L13.5525 3.11442Z" fill="url(#paint0_linear_3805_156)"/>
<path d="M13.5525 3.11442C15.0838 1.3908 17.1657 1.66513 18.4978 3.11442L19.3103 4.05503C19.5916 4.36108 19.9986 4.51979 20.4129 4.48491L21.8572 4.05503C23.826 3.63299 25.615 5.10174 25.615 7.38299V8.24236C25.6568 8.71149 26.0666 9.0295 26.4898 9.23618L27.7947 9.78143C29.6824 10.7033 30.1541 12.8908 28.7791 14.7267L28.3885 15.2424C28.0381 15.716 28.1101 16.3378 28.4588 16.8127L28.8494 17.3596C30.2713 19.1096 29.4695 21.5105 27.4611 22.3493L26.3377 22.8185C25.9146 22.9952 25.7489 23.2985 25.6697 23.7502L25.5916 25.2189C25.3181 27.2346 23.528 28.145 22.0916 27.9416L20.3806 27.4846C19.9697 27.4264 19.4588 27.5627 19.1853 27.9924L18.5681 28.8361C17.0369 30.5627 14.9702 30.2756 13.9275 29.2658L12.789 27.8869C12.4909 27.5982 12.115 27.3517 11.6652 27.5215L9.94315 27.9924C8.52148 28.1937 6.84744 27.1008 6.57949 25.6901L6.38065 23.6486C6.29994 23.2237 6.01974 22.8636 5.62771 22.6809L4.41973 22.2658C2.6032 21.4193 1.99477 19.3699 3.03778 17.6586L3.71863 16.7171C3.99211 16.2684 3.97911 15.7015 3.68535 15.2658L3.17753 14.5471C1.74006 12.5002 2.73392 10.2123 4.86403 9.52646L5.33383 9.37518C5.85236 9.20822 6.35324 8.7776 6.39633 8.23456L6.50095 6.91631C6.67075 4.77657 8.62327 3.54875 10.6769 4.17308L11.3416 4.37513C11.9822 4.62513 12.4841 4.41223 12.8338 4.03138L13.5525 3.11442Z" fill="url(#paint1_radial_3805_156)"/>
<path d="M13.5525 3.11442C15.0838 1.3908 17.1657 1.66513 18.4978 3.11442L19.3103 4.05503C19.5916 4.36108 19.9986 4.51979 20.4129 4.48491L21.8572 4.05503C23.826 3.63299 25.615 5.10174 25.615 7.38299V8.24236C25.6568 8.71149 26.0666 9.0295 26.4898 9.23618L27.7947 9.78143C29.6824 10.7033 30.1541 12.8908 28.7791 14.7267L28.3885 15.2424C28.0381 15.716 28.1101 16.3378 28.4588 16.8127L28.8494 17.3596C30.2713 19.1096 29.4695 21.5105 27.4611 22.3493L26.3377 22.8185C25.9146 22.9952 25.7489 23.2985 25.6697 23.7502L25.5916 25.2189C25.3181 27.2346 23.528 28.145 22.0916 27.9416L20.3806 27.4846C19.9697 27.4264 19.4588 27.5627 19.1853 27.9924L18.5681 28.8361C17.0369 30.5627 14.9702 30.2756 13.9275 29.2658L12.789 27.8869C12.4909 27.5982 12.115 27.3517 11.6652 27.5215L9.94315 27.9924C8.52148 28.1937 6.84744 27.1008 6.57949 25.6901L6.38065 23.6486C6.29994 23.2237 6.01974 22.8636 5.62771 22.6809L4.41973 22.2658C2.6032 21.4193 1.99477 19.3699 3.03778 17.6586L3.71863 16.7171C3.99211 16.2684 3.97911 15.7015 3.68535 15.2658L3.17753 14.5471C1.74006 12.5002 2.73392 10.2123 4.86403 9.52646L5.33383 9.37518C5.85236 9.20822 6.35324 8.7776 6.39633 8.23456L6.50095 6.91631C6.67075 4.77657 8.62327 3.54875 10.6769 4.17308L11.3416 4.37513C11.9822 4.62513 12.4841 4.41223 12.8338 4.03138L13.5525 3.11442Z" fill="url(#paint2_radial_3805_156)"/>
<path d="M13.5525 3.11442C15.0838 1.3908 17.1657 1.66513 18.4978 3.11442L19.3103 4.05503C19.5916 4.36108 19.9986 4.51979 20.4129 4.48491L21.8572 4.05503C23.826 3.63299 25.615 5.10174 25.615 7.38299V8.24236C25.6568 8.71149 26.0666 9.0295 26.4898 9.23618L27.7947 9.78143C29.6824 10.7033 30.1541 12.8908 28.7791 14.7267L28.3885 15.2424C28.0381 15.716 28.1101 16.3378 28.4588 16.8127L28.8494 17.3596C30.2713 19.1096 29.4695 21.5105 27.4611 22.3493L26.3377 22.8185C25.9146 22.9952 25.7489 23.2985 25.6697 23.7502L25.5916 25.2189C25.3181 27.2346 23.528 28.145 22.0916 27.9416L20.3806 27.4846C19.9697 27.4264 19.4588 27.5627 19.1853 27.9924L18.5681 28.8361C17.0369 30.5627 14.9702 30.2756 13.9275 29.2658L12.789 27.8869C12.4909 27.5982 12.115 27.3517 11.6652 27.5215L9.94315 27.9924C8.52148 28.1937 6.84744 27.1008 6.57949 25.6901L6.38065 23.6486C6.29994 23.2237 6.01974 22.8636 5.62771 22.6809L4.41973 22.2658C2.6032 21.4193 1.99477 19.3699 3.03778 17.6586L3.71863 16.7171C3.99211 16.2684 3.97911 15.7015 3.68535 15.2658L3.17753 14.5471C1.74006 12.5002 2.73392 10.2123 4.86403 9.52646L5.33383 9.37518C5.85236 9.20822 6.35324 8.7776 6.39633 8.23456L6.50095 6.91631C6.67075 4.77657 8.62327 3.54875 10.6769 4.17308L11.3416 4.37513C11.9822 4.62513 12.4841 4.41223 12.8338 4.03138L13.5525 3.11442Z" fill="url(#paint3_radial_3805_156)"/>
<path d="M13.5525 3.11442C15.0838 1.3908 17.1657 1.66513 18.4978 3.11442L19.3103 4.05503C19.5916 4.36108 19.9986 4.51979 20.4129 4.48491L21.8572 4.05503C23.826 3.63299 25.615 5.10174 25.615 7.38299V8.24236C25.6568 8.71149 26.0666 9.0295 26.4898 9.23618L27.7947 9.78143C29.6824 10.7033 30.1541 12.8908 28.7791 14.7267L28.3885 15.2424C28.0381 15.716 28.1101 16.3378 28.4588 16.8127L28.8494 17.3596C30.2713 19.1096 29.4695 21.5105 27.4611 22.3493L26.3377 22.8185C25.9146 22.9952 25.7489 23.2985 25.6697 23.7502L25.5916 25.2189C25.3181 27.2346 23.528 28.145 22.0916 27.9416L20.3806 27.4846C19.9697 27.4264 19.4588 27.5627 19.1853 27.9924L18.5681 28.8361C17.0369 30.5627 14.9702 30.2756 13.9275 29.2658L12.789 27.8869C12.4909 27.5982 12.115 27.3517 11.6652 27.5215L9.94315 27.9924C8.52148 28.1937 6.84744 27.1008 6.57949 25.6901L6.38065 23.6486C6.29994 23.2237 6.01974 22.8636 5.62771 22.6809L4.41973 22.2658C2.6032 21.4193 1.99477 19.3699 3.03778 17.6586L3.71863 16.7171C3.99211 16.2684 3.97911 15.7015 3.68535 15.2658L3.17753 14.5471C1.74006 12.5002 2.73392 10.2123 4.86403 9.52646L5.33383 9.37518C5.85236 9.20822 6.35324 8.7776 6.39633 8.23456L6.50095 6.91631C6.67075 4.77657 8.62327 3.54875 10.6769 4.17308L11.3416 4.37513C11.9822 4.62513 12.4841 4.41223 12.8338 4.03138L13.5525 3.11442Z" fill="url(#paint4_radial_3805_156)"/>
<path d="M13.5525 3.11442C15.0838 1.3908 17.1657 1.66513 18.4978 3.11442L19.3103 4.05503C19.5916 4.36108 19.9986 4.51979 20.4129 4.48491L21.8572 4.05503C23.826 3.63299 25.615 5.10174 25.615 7.38299V8.24236C25.6568 8.71149 26.0666 9.0295 26.4898 9.23618L27.7947 9.78143C29.6824 10.7033 30.1541 12.8908 28.7791 14.7267L28.3885 15.2424C28.0381 15.716 28.1101 16.3378 28.4588 16.8127L28.8494 17.3596C30.2713 19.1096 29.4695 21.5105 27.4611 22.3493L26.3377 22.8185C25.9146 22.9952 25.7489 23.2985 25.6697 23.7502L25.5916 25.2189C25.3181 27.2346 23.528 28.145 22.0916 27.9416L20.3806 27.4846C19.9697 27.4264 19.4588 27.5627 19.1853 27.9924L18.5681 28.8361C17.0369 30.5627 14.9702 30.2756 13.9275 29.2658L12.789 27.8869C12.4909 27.5982 12.115 27.3517 11.6652 27.5215L9.94315 27.9924C8.52148 28.1937 6.84744 27.1008 6.57949 25.6901L6.38065 23.6486C6.29994 23.2237 6.01974 22.8636 5.62771 22.6809L4.41973 22.2658C2.6032 21.4193 1.99477 19.3699 3.03778 17.6586L3.71863 16.7171C3.99211 16.2684 3.97911 15.7015 3.68535 15.2658L3.17753 14.5471C1.74006 12.5002 2.73392 10.2123 4.86403 9.52646L5.33383 9.37518C5.85236 9.20822 6.35324 8.7776 6.39633 8.23456L6.50095 6.91631C6.67075 4.77657 8.62327 3.54875 10.6769 4.17308L11.3416 4.37513C11.9822 4.62513 12.4841 4.41223 12.8338 4.03138L13.5525 3.11442Z" fill="url(#paint5_radial_3805_156)"/>
<path d="M13.5525 3.11442C15.0838 1.3908 17.1657 1.66513 18.4978 3.11442L19.3103 4.05503C19.5916 4.36108 19.9986 4.51979 20.4129 4.48491L21.8572 4.05503C23.826 3.63299 25.615 5.10174 25.615 7.38299V8.24236C25.6568 8.71149 26.0666 9.0295 26.4898 9.23618L27.7947 9.78143C29.6824 10.7033 30.1541 12.8908 28.7791 14.7267L28.3885 15.2424C28.0381 15.716 28.1101 16.3378 28.4588 16.8127L28.8494 17.3596C30.2713 19.1096 29.4695 21.5105 27.4611 22.3493L26.3377 22.8185C25.9146 22.9952 25.7489 23.2985 25.6697 23.7502L25.5916 25.2189C25.3181 27.2346 23.528 28.145 22.0916 27.9416L20.3806 27.4846C19.9697 27.4264 19.4588 27.5627 19.1853 27.9924L18.5681 28.8361C17.0369 30.5627 14.9702 30.2756 13.9275 29.2658L12.789 27.8869C12.4909 27.5982 12.115 27.3517 11.6652 27.5215L9.94315 27.9924C8.52148 28.1937 6.84744 27.1008 6.57949 25.6901L6.38065 23.6486C6.29994 23.2237 6.01974 22.8636 5.62771 22.6809L4.41973 22.2658C2.6032 21.4193 1.99477 19.3699 3.03778 17.6586L3.71863 16.7171C3.99211 16.2684 3.97911 15.7015 3.68535 15.2658L3.17753 14.5471C1.74006 12.5002 2.73392 10.2123 4.86403 9.52646L5.33383 9.37518C5.85236 9.20822 6.35324 8.7776 6.39633 8.23456L6.50095 6.91631C6.67075 4.77657 8.62327 3.54875 10.6769 4.17308L11.3416 4.37513C11.9822 4.62513 12.4841 4.41223 12.8338 4.03138L13.5525 3.11442Z" fill="url(#paint6_radial_3805_156)"/>
<path d="M13.5525 3.11442C15.0838 1.3908 17.1657 1.66513 18.4978 3.11442L19.3103 4.05503C19.5916 4.36108 19.9986 4.51979 20.4129 4.48491L21.8572 4.05503C23.826 3.63299 25.615 5.10174 25.615 7.38299V8.24236C25.6568 8.71149 26.0666 9.0295 26.4898 9.23618L27.7947 9.78143C29.6824 10.7033 30.1541 12.8908 28.7791 14.7267L28.3885 15.2424C28.0381 15.716 28.1101 16.3378 28.4588 16.8127L28.8494 17.3596C30.2713 19.1096 29.4695 21.5105 27.4611 22.3493L26.3377 22.8185C25.9146 22.9952 25.7489 23.2985 25.6697 23.7502L25.5916 25.2189C25.3181 27.2346 23.528 28.145 22.0916 27.9416L20.3806 27.4846C19.9697 27.4264 19.4588 27.5627 19.1853 27.9924L18.5681 28.8361C17.0369 30.5627 14.9702 30.2756 13.9275 29.2658L12.789 27.8869C12.4909 27.5982 12.115 27.3517 11.6652 27.5215L9.94315 27.9924C8.52148 28.1937 6.84744 27.1008 6.57949 25.6901L6.38065 23.6486C6.29994 23.2237 6.01974 22.8636 5.62771 22.6809L4.41973 22.2658C2.6032 21.4193 1.99477 19.3699 3.03778 17.6586L3.71863 16.7171C3.99211 16.2684 3.97911 15.7015 3.68535 15.2658L3.17753 14.5471C1.74006 12.5002 2.73392 10.2123 4.86403 9.52646L5.33383 9.37518C5.85236 9.20822 6.35324 8.7776 6.39633 8.23456L6.50095 6.91631C6.67075 4.77657 8.62327 3.54875 10.6769 4.17308L11.3416 4.37513C11.9822 4.62513 12.4841 4.41223 12.8338 4.03138L13.5525 3.11442Z" fill="url(#paint7_radial_3805_156)"/>
<path d="M13.5525 3.11442C15.0838 1.3908 17.1657 1.66513 18.4978 3.11442L19.3103 4.05503C19.5916 4.36108 19.9986 4.51979 20.4129 4.48491L21.8572 4.05503C23.826 3.63299 25.615 5.10174 25.615 7.38299V8.24236C25.6568 8.71149 26.0666 9.0295 26.4898 9.23618L27.7947 9.78143C29.6824 10.7033 30.1541 12.8908 28.7791 14.7267L28.3885 15.2424C28.0381 15.716 28.1101 16.3378 28.4588 16.8127L28.8494 17.3596C30.2713 19.1096 29.4695 21.5105 27.4611 22.3493L26.3377 22.8185C25.9146 22.9952 25.7489 23.2985 25.6697 23.7502L25.5916 25.2189C25.3181 27.2346 23.528 28.145 22.0916 27.9416L20.3806 27.4846C19.9697 27.4264 19.4588 27.5627 19.1853 27.9924L18.5681 28.8361C17.0369 30.5627 14.9702 30.2756 13.9275 29.2658L12.789 27.8869C12.4909 27.5982 12.115 27.3517 11.6652 27.5215L9.94315 27.9924C8.52148 28.1937 6.84744 27.1008 6.57949 25.6901L6.38065 23.6486C6.29994 23.2237 6.01974 22.8636 5.62771 22.6809L4.41973 22.2658C2.6032 21.4193 1.99477 19.3699 3.03778 17.6586L3.71863 16.7171C3.99211 16.2684 3.97911 15.7015 3.68535 15.2658L3.17753 14.5471C1.74006 12.5002 2.73392 10.2123 4.86403 9.52646L5.33383 9.37518C5.85236 9.20822 6.35324 8.7776 6.39633 8.23456L6.50095 6.91631C6.67075 4.77657 8.62327 3.54875 10.6769 4.17308L11.3416 4.37513C11.9822 4.62513 12.4841 4.41223 12.8338 4.03138L13.5525 3.11442Z" fill="url(#paint8_radial_3805_156)"/>
<path d="M13.5525 3.11442C15.0838 1.3908 17.1657 1.66513 18.4978 3.11442L19.3103 4.05503C19.5916 4.36108 19.9986 4.51979 20.4129 4.48491L21.8572 4.05503C23.826 3.63299 25.615 5.10174 25.615 7.38299V8.24236C25.6568 8.71149 26.0666 9.0295 26.4898 9.23618L27.7947 9.78143C29.6824 10.7033 30.1541 12.8908 28.7791 14.7267L28.3885 15.2424C28.0381 15.716 28.1101 16.3378 28.4588 16.8127L28.8494 17.3596C30.2713 19.1096 29.4695 21.5105 27.4611 22.3493L26.3377 22.8185C25.9146 22.9952 25.7489 23.2985 25.6697 23.7502L25.5916 25.2189C25.3181 27.2346 23.528 28.145 22.0916 27.9416L20.3806 27.4846C19.9697 27.4264 19.4588 27.5627 19.1853 27.9924L18.5681 28.8361C17.0369 30.5627 14.9702 30.2756 13.9275 29.2658L12.789 27.8869C12.4909 27.5982 12.115 27.3517 11.6652 27.5215L9.94315 27.9924C8.52148 28.1937 6.84744 27.1008 6.57949 25.6901L6.38065 23.6486C6.29994 23.2237 6.01974 22.8636 5.62771 22.6809L4.41973 22.2658C2.6032 21.4193 1.99477 19.3699 3.03778 17.6586L3.71863 16.7171C3.99211 16.2684 3.97911 15.7015 3.68535 15.2658L3.17753 14.5471C1.74006 12.5002 2.73392 10.2123 4.86403 9.52646L5.33383 9.37518C5.85236 9.20822 6.35324 8.7776 6.39633 8.23456L6.50095 6.91631C6.67075 4.77657 8.62327 3.54875 10.6769 4.17308L11.3416 4.37513C11.9822 4.62513 12.4841 4.41223 12.8338 4.03138L13.5525 3.11442Z" fill="url(#paint9_radial_3805_156)"/>
</g>
<g filter="url(#filter1_d_3805_156)">
<path d="M16.0359 26.7174C21.9691 26.7174 26.7789 21.9076 26.7789 15.9744C26.7789 10.0412 21.9691 5.23145 16.0359 5.23145C10.1027 5.23145 5.29297 10.0412 5.29297 15.9744C5.29297 21.9076 10.1027 26.7174 16.0359 26.7174Z" fill="url(#paint10_radial_3805_156)"/>
</g>
<g opacity="0.44" filter="url(#filter2_f_3805_156)">
<path d="M9.4268 19.5396C11.0616 19.5396 12.3868 18.2144 12.3868 16.5796C12.3868 14.9449 11.0616 13.6196 9.4268 13.6196C7.79203 13.6196 6.4668 14.9449 6.4668 16.5796C6.4668 18.2144 7.79203 19.5396 9.4268 19.5396Z" fill="url(#paint11_radial_3805_156)"/>
</g>
<g opacity="0.44" filter="url(#filter3_f_3805_156)">
<path d="M22.6455 19.5396C24.2803 19.5396 25.6055 18.2144 25.6055 16.5796C25.6055 14.9449 24.2803 13.6196 22.6455 13.6196C21.0108 13.6196 19.6855 14.9449 19.6855 16.5796C19.6855 18.2144 21.0108 19.5396 22.6455 19.5396Z" fill="url(#paint12_radial_3805_156)"/>
</g>
<g filter="url(#filter4_f_3805_156)">
<path fill-rule="evenodd" clip-rule="evenodd" d="M11.0712 18.0908C11.3641 17.7979 11.839 17.7979 12.1319 18.0908C14.289 20.2479 17.7841 20.2479 19.9412 18.0908C20.2341 17.7979 20.709 17.7979 21.0019 18.0908C21.2948 18.3837 21.2948 18.8585 21.0019 19.1514C18.259 21.8943 13.8141 21.8943 11.0712 19.1514C10.7783 18.8585 10.7783 18.3837 11.0712 18.0908Z" fill="#D6961E"/>
</g>
<g filter="url(#filter5_i_3805_156)">
<path fill-rule="evenodd" clip-rule="evenodd" d="M11.3251 17.7197C11.618 17.4268 12.0929 17.4268 12.3858 17.7197C14.5429 19.8768 18.038 19.8768 20.1951 17.7197C20.488 17.4268 20.9629 17.4268 21.2558 17.7197C21.5487 18.0126 21.5487 18.4874 21.2558 18.7803C18.5129 21.5232 14.068 21.5232 11.3251 18.7803C11.0322 18.4874 11.0322 18.0126 11.3251 17.7197Z" fill="url(#paint13_linear_3805_156)"/>
<path fill-rule="evenodd" clip-rule="evenodd" d="M11.3251 17.7197C11.618 17.4268 12.0929 17.4268 12.3858 17.7197C14.5429 19.8768 18.038 19.8768 20.1951 17.7197C20.488 17.4268 20.9629 17.4268 21.2558 17.7197C21.5487 18.0126 21.5487 18.4874 21.2558 18.7803C18.5129 21.5232 14.068 21.5232 11.3251 18.7803C11.0322 18.4874 11.0322 18.0126 11.3251 17.7197Z" fill="url(#paint14_linear_3805_156)"/>
</g>
<g filter="url(#filter6_i_3805_156)">
<path fill-rule="evenodd" clip-rule="evenodd" d="M11.0855 9.17969C9.72052 9.17969 8.60547 10.2869 8.60547 11.6597C8.60547 11.9358 8.38161 12.1597 8.10547 12.1597C7.82933 12.1597 7.60547 11.9358 7.60547 11.6597C7.60547 9.73245 9.17042 8.17969 11.0855 8.17969C11.3616 8.17969 11.5855 8.40355 11.5855 8.67969C11.5855 8.95583 11.3616 9.17969 11.0855 9.17969Z" fill="#43304A"/>
<path fill-rule="evenodd" clip-rule="evenodd" d="M11.0855 9.17969C9.72052 9.17969 8.60547 10.2869 8.60547 11.6597C8.60547 11.9358 8.38161 12.1597 8.10547 12.1597C7.82933 12.1597 7.60547 11.9358 7.60547 11.6597C7.60547 9.73245 9.17042 8.17969 11.0855 8.17969C11.3616 8.17969 11.5855 8.40355 11.5855 8.67969C11.5855 8.95583 11.3616 9.17969 11.0855 9.17969Z" fill="url(#paint15_radial_3805_156)"/>
</g>
<g filter="url(#filter7_f_3805_156)">
<path fill-rule="evenodd" clip-rule="evenodd" d="M20.8418 8.91598C20.8418 8.6493 21.058 8.43311 21.3247 8.43311C23.1741 8.43311 24.6855 9.93269 24.6855 11.7939C24.6855 12.0606 24.4693 12.2768 24.2026 12.2768C23.9359 12.2768 23.7197 12.0606 23.7197 11.7939C23.7197 10.4682 22.6429 9.39886 21.3247 9.39886C21.058 9.39886 20.8418 9.18267 20.8418 8.91598Z" fill="#C28D03"/>
</g>
<g filter="url(#filter8_i_3805_156)">
<path fill-rule="evenodd" clip-rule="evenodd" d="M20.9668 8.67969C20.9668 8.40355 21.1907 8.17969 21.4668 8.17969C23.3818 8.17969 24.9468 9.73245 24.9468 11.6597C24.9468 11.9358 24.7229 12.1597 24.4468 12.1597C24.1707 12.1597 23.9468 11.9358 23.9468 11.6597C23.9468 10.2869 22.8317 9.17969 21.4668 9.17969C21.1907 9.17969 20.9668 8.95583 20.9668 8.67969Z" fill="#43304A"/>
</g>
<g filter="url(#filter9_f_3805_156)">
<path fill-rule="evenodd" clip-rule="evenodd" d="M11.8736 12.8398C11.3334 12.8398 10.8772 13.1682 10.6941 13.6348C10.5549 13.9896 10.1544 14.1644 9.79956 14.0251C9.44474 13.8859 9.26997 13.4854 9.40921 13.1306C9.79664 12.1432 10.7575 11.4595 11.8736 11.4595C13.0444 11.4595 14.0395 12.2195 14.3879 13.2772C14.5072 13.6392 14.3104 14.0293 13.9484 14.1486C13.5863 14.2679 13.1962 14.071 13.0769 13.709C12.91 13.2024 12.4328 12.8398 11.8736 12.8398Z" fill="#C68D0F"/>
</g>
<path fill-rule="evenodd" clip-rule="evenodd" d="M12.0056 12.6597C11.4185 12.6597 10.9227 13.0166 10.7238 13.5236C10.5725 13.9092 10.1372 14.0991 9.75163 13.9478C9.36604 13.7965 9.17611 13.3613 9.32742 12.9757C9.74846 11.9027 10.7926 11.1597 12.0056 11.1597C13.2779 11.1597 14.3593 11.9856 14.7379 13.135C14.8675 13.5284 14.6537 13.9524 14.2602 14.082C13.8668 14.2116 13.4428 13.9977 13.3132 13.6043C13.1319 13.0537 12.6133 12.6597 12.0056 12.6597Z" fill="url(#paint16_linear_3805_156)"/>
<g filter="url(#filter10_f_3805_156)">
<path fill-rule="evenodd" clip-rule="evenodd" d="M20.5318 12.8398C19.9916 12.8398 19.5354 13.1682 19.3523 13.6348C19.2131 13.9896 18.8126 14.1644 18.4578 14.0251C18.1029 13.8859 17.9282 13.4854 18.0674 13.1306C18.4548 12.1432 19.4157 11.4595 20.5318 11.4595C21.7026 11.4595 22.6977 12.2195 23.0461 13.2772C23.1654 13.6392 22.9686 14.0293 22.6066 14.1486C22.2445 14.2679 21.8544 14.071 21.7351 13.709C21.5682 13.2024 21.091 12.8398 20.5318 12.8398Z" fill="#C68D0F"/>
</g>
<g filter="url(#filter11_i_3805_156)">
<path fill-rule="evenodd" clip-rule="evenodd" d="M20.6267 12.6597C20.0396 12.6597 19.5438 13.0166 19.3449 13.5236C19.1935 13.9092 18.7583 14.0991 18.3727 13.9478C17.9871 13.7965 17.7972 13.3613 17.9485 12.9757C18.3696 11.9027 19.4137 11.1597 20.6267 11.1597C21.899 11.1597 22.9804 11.9856 23.359 13.135C23.4886 13.5284 23.2748 13.9524 22.8813 14.082C22.4879 14.2116 22.0639 13.9977 21.9343 13.6043C21.753 13.0537 21.2344 12.6597 20.6267 12.6597Z" fill="#422E51"/>
</g>
<g filter="url(#filter12_f_3805_156)">
<path d="M11.8906 18.2734C13.3311 19.622 17.101 21.51 20.6564 18.2734" stroke="url(#paint17_linear_3805_156)" stroke-width="0.6" stroke-linecap="round"/>
<path d="M11.8906 18.2734C13.3311 19.622 17.101 21.51 20.6564 18.2734" stroke="url(#paint18_linear_3805_156)" stroke-width="0.6" stroke-linecap="round"/>
</g>
<g filter="url(#filter13_f_3805_156)">
<path d="M21.543 8.55273C22.4284 8.56315 24.3242 9.24336 24.5117 11.6309" stroke="url(#paint19_linear_3805_156)" stroke-width="0.4" stroke-linecap="round"/>
<path d="M21.543 8.55273C22.4284 8.56315 24.3242 9.24336 24.5117 11.6309" stroke="url(#paint20_linear_3805_156)" stroke-width="0.4" stroke-linecap="round"/>
</g>
<g filter="url(#filter14_f_3805_156)">
<path d="M8.15234 11.584C8.1888 10.8913 8.59297 9.56523 9.85547 8.99023" stroke="url(#paint21_linear_3805_156)" stroke-width="0.4" stroke-linecap="round"/>
</g>
<g filter="url(#filter15_f_3805_156)">
<path d="M14.1632 13.4851C14.0518 12.8164 13.3533 11.5384 11.4512 11.7762" stroke="url(#paint22_linear_3805_156)" stroke-width="0.5" stroke-linecap="round"/>
</g>
<g opacity="0.5" filter="url(#filter16_f_3805_156)">
<path d="M18.752 13.1127C18.9358 12.6775 19.5719 11.8184 20.6456 11.8625C21.7193 11.9066 22.5699 12.6469 22.7966 13.1127" stroke="url(#paint23_linear_3805_156)" stroke-width="0.5" stroke-linecap="round"/>
</g>
<defs>
<filter id="filter0_i_3805_156" x="2.50195" y="1.67236" width="27.3184" height="28.4053" filterUnits="userSpaceOnUse" color-interpolation-filters="sRGB">
<feFlood flood-opacity="0" result="BackgroundImageFix"/>
<feBlend mode="normal" in="SourceGraphic" in2="BackgroundImageFix" result="shape"/>
<feColorMatrix in="SourceAlpha" type="matrix" values="0 0 0 0 0 0 0 0 0 0 0 0 0 0 0 0 0 0 127 0" result="hardAlpha"/>
<feOffset dx="0.25" dy="-0.25"/>
<feGaussianBlur stdDeviation="0.25"/>
<feComposite in2="hardAlpha" operator="arithmetic" k2="-1" k3="1"/>
<feColorMatrix type="matrix" values="0 0 0 0 0.85098 0 0 0 0 0.447059 0 0 0 0 0.196078 0 0 0 1 0"/>
<feBlend mode="normal" in2="shape" result="effect1_innerShadow_3805_156"/>
</filter>
<filter id="filter1_d_3805_156" x="4.69297" y="5.23145" width="22.0863" height="22.0858" filterUnits="userSpaceOnUse" color-interpolation-filters="sRGB">
<feFlood flood-opacity="0" result="BackgroundImageFix"/>
<feColorMatrix in="SourceAlpha" type="matrix" values="0 0 0 0 0 0 0 0 0 0 0 0 0 0 0 0 0 0 127 0" result="hardAlpha"/>
<feOffset dx="-0.3" dy="0.3"/>
<feGaussianBlur stdDeviation="0.15"/>
<feComposite in2="hardAlpha" operator="out"/>
<feColorMatrix type="matrix" values="0 0 0 0 0.921569 0 0 0 0 0.47451 0 0 0 0 0.133333 0 0 0 1 0"/>
<feBlend mode="normal" in2="BackgroundImageFix" result="effect1_dropShadow_3805_156"/>
<feBlend mode="normal" in="SourceGraphic" in2="effect1_dropShadow_3805_156" result="shape"/>
</filter>
<filter id="filter2_f_3805_156" x="5.9668" y="13.1196" width="6.91992" height="6.91992" filterUnits="userSpaceOnUse" color-interpolation-filters="sRGB">
<feFlood flood-opacity="0" result="BackgroundImageFix"/>
<feBlend mode="normal" in="SourceGraphic" in2="BackgroundImageFix" result="shape"/>
<feGaussianBlur stdDeviation="0.25" result="effect1_foregroundBlur_3805_156"/>
</filter>
<filter id="filter3_f_3805_156" x="19.1855" y="13.1196" width="6.91992" height="6.91992" filterUnits="userSpaceOnUse" color-interpolation-filters="sRGB">
<feFlood flood-opacity="0" result="BackgroundImageFix"/>
<feBlend mode="normal" in="SourceGraphic" in2="BackgroundImageFix" result="shape"/>
<feGaussianBlur stdDeviation="0.25" result="effect1_foregroundBlur_3805_156"/>
</filter>
<filter id="filter4_f_3805_156" x="10.3516" y="17.3711" width="11.3691" height="4.3374" filterUnits="userSpaceOnUse" color-interpolation-filters="sRGB">
<feFlood flood-opacity="0" result="BackgroundImageFix"/>
<feBlend mode="normal" in="SourceGraphic" in2="BackgroundImageFix" result="shape"/>
<feGaussianBlur stdDeviation="0.25" result="effect1_foregroundBlur_3805_156"/>
</filter>
<filter id="filter5_i_3805_156" x="11.1055" y="17.25" width="10.6191" height="3.5874" filterUnits="userSpaceOnUse" color-interpolation-filters="sRGB">
<feFlood flood-opacity="0" result="BackgroundImageFix"/>
<feBlend mode="normal" in="SourceGraphic" in2="BackgroundImageFix" result="shape"/>
<feColorMatrix in="SourceAlpha" type="matrix" values="0 0 0 0 0 0 0 0 0 0 0 0 0 0 0 0 0 0 127 0" result="hardAlpha"/>
<feOffset dx="0.25" dy="-0.25"/>
<feGaussianBlur stdDeviation="0.5"/>
<feComposite in2="hardAlpha" operator="arithmetic" k2="-1" k3="1"/>
<feColorMatrix type="matrix" values="0 0 0 0 0.203922 0 0 0 0 0.168627 0 0 0 0 0.180392 0 0 0 1 0"/>
<feBlend mode="normal" in2="shape" result="effect1_innerShadow_3805_156"/>
</filter>
<filter id="filter6_i_3805_156" x="7.60547" y="7.92969" width="4.23047" height="4.22998" filterUnits="userSpaceOnUse" color-interpolation-filters="sRGB">
<feFlood flood-opacity="0" result="BackgroundImageFix"/>
<feBlend mode="normal" in="SourceGraphic" in2="BackgroundImageFix" result="shape"/>
<feColorMatrix in="SourceAlpha" type="matrix" values="0 0 0 0 0 0 0 0 0 0 0 0 0 0 0 0 0 0 127 0" result="hardAlpha"/>
<feOffset dx="0.25" dy="-0.25"/>
<feGaussianBlur stdDeviation="0.25"/>
<feComposite in2="hardAlpha" operator="arithmetic" k2="-1" k3="1"/>
<feColorMatrix type="matrix" values="0 0 0 0 0.239216 0 0 0 0 0.156863 0 0 0 0 0.172549 0 0 0 1 0"/>
<feBlend mode="normal" in2="shape" result="effect1_innerShadow_3805_156"/>
</filter>
<filter id="filter7_f_3805_156" x="20.3418" y="7.93311" width="4.84375" height="4.84375" filterUnits="userSpaceOnUse" color-interpolation-filters="sRGB">
<feFlood flood-opacity="0" result="BackgroundImageFix"/>
<feBlend mode="normal" in="SourceGraphic" in2="BackgroundImageFix" result="shape"/>
<feGaussianBlur stdDeviation="0.25" result="effect1_foregroundBlur_3805_156"/>
</filter>
<filter id="filter8_i_3805_156" x="20.9668" y="8.02969" width="4.13047" height="4.12998" filterUnits="userSpaceOnUse" color-interpolation-filters="sRGB">
<feFlood flood-opacity="0" result="BackgroundImageFix"/>
<feBlend mode="normal" in="SourceGraphic" in2="BackgroundImageFix" result="shape"/>
<feColorMatrix in="SourceAlpha" type="matrix" values="0 0 0 0 0 0 0 0 0 0 0 0 0 0 0 0 0 0 127 0" result="hardAlpha"/>
<feOffset dx="0.15" dy="-0.15"/>
<feGaussianBlur stdDeviation="0.25"/>
<feComposite in2="hardAlpha" operator="arithmetic" k2="-1" k3="1"/>
<feColorMatrix type="matrix" values="0 0 0 0 0.270588 0 0 0 0 0.196078 0 0 0 0 0.192157 0 0 0 1 0"/>
<feBlend mode="normal" in2="shape" result="effect1_innerShadow_3805_156"/>
</filter>
<filter id="filter9_f_3805_156" x="8.96133" y="11.0595" width="5.86055" height="3.52412" filterUnits="userSpaceOnUse" color-interpolation-filters="sRGB">
<feFlood flood-opacity="0" result="BackgroundImageFix"/>
<feBlend mode="normal" in="SourceGraphic" in2="BackgroundImageFix" result="shape"/>
<feGaussianBlur stdDeviation="0.2" result="effect1_foregroundBlur_3805_156"/>
</filter>
<filter id="filter10_f_3805_156" x="17.6195" y="11.0595" width="5.86055" height="3.52412" filterUnits="userSpaceOnUse" color-interpolation-filters="sRGB">
<feFlood flood-opacity="0" result="BackgroundImageFix"/>
<feBlend mode="normal" in="SourceGraphic" in2="BackgroundImageFix" result="shape"/>
<feGaussianBlur stdDeviation="0.2" result="effect1_foregroundBlur_3805_156"/>
</filter>
<filter id="filter11_i_3805_156" x="17.8965" y="11.0097" width="5.9" height="3.10996" filterUnits="userSpaceOnUse" color-interpolation-filters="sRGB">
<feFlood flood-opacity="0" result="BackgroundImageFix"/>
<feBlend mode="normal" in="SourceGraphic" in2="BackgroundImageFix" result="shape"/>
<feColorMatrix in="SourceAlpha" type="matrix" values="0 0 0 0 0 0 0 0 0 0 0 0 0 0 0 0 0 0 127 0" result="hardAlpha"/>
<feOffset dx="0.4" dy="-0.15"/>
<feGaussianBlur stdDeviation="0.25"/>
<feComposite in2="hardAlpha" operator="arithmetic" k2="-1" k3="1"/>
<feColorMatrix type="matrix" values="0 0 0 0 0.298039 0 0 0 0 0.196078 0 0 0 0 0.235294 0 0 0 1 0"/>
<feBlend mode="normal" in2="shape" result="effect1_innerShadow_3805_156"/>
</filter>
<filter id="filter12_f_3805_156" x="10.9898" y="17.3736" width="10.5672" height="3.58672" filterUnits="userSpaceOnUse" color-interpolation-filters="sRGB">
<feFlood flood-opacity="0" result="BackgroundImageFix"/>
<feBlend mode="normal" in="SourceGraphic" in2="BackgroundImageFix" result="shape"/>
<feGaussianBlur stdDeviation="0.3" result="effect1_foregroundBlur_3805_156"/>
</filter>
<filter id="filter13_f_3805_156" x="20.9437" y="7.95254" width="4.16719" height="4.27852" filterUnits="userSpaceOnUse" color-interpolation-filters="sRGB">
<feFlood flood-opacity="0" result="BackgroundImageFix"/>
<feBlend mode="normal" in="SourceGraphic" in2="BackgroundImageFix" result="shape"/>
<feGaussianBlur stdDeviation="0.2" result="effect1_foregroundBlur_3805_156"/>
</filter>
<filter id="filter14_f_3805_156" x="7.55312" y="8.39004" width="2.90156" height="3.79414" filterUnits="userSpaceOnUse" color-interpolation-filters="sRGB">
<feFlood flood-opacity="0" result="BackgroundImageFix"/>
<feBlend mode="normal" in="SourceGraphic" in2="BackgroundImageFix" result="shape"/>
<feGaussianBlur stdDeviation="0.2" result="effect1_foregroundBlur_3805_156"/>
</filter>
<filter id="filter15_f_3805_156" x="10.7012" y="10.9971" width="4.21289" height="3.23828" filterUnits="userSpaceOnUse" color-interpolation-filters="sRGB">
<feFlood flood-opacity="0" result="BackgroundImageFix"/>
<feBlend mode="normal" in="SourceGraphic" in2="BackgroundImageFix" result="shape"/>
<feGaussianBlur stdDeviation="0.25" result="effect1_foregroundBlur_3805_156"/>
</filter>
<filter id="filter16_f_3805_156" x="18.002" y="11.1108" width="5.54492" height="2.75195" filterUnits="userSpaceOnUse" color-interpolation-filters="sRGB">
<feFlood flood-opacity="0" result="BackgroundImageFix"/>
<feBlend mode="normal" in="SourceGraphic" in2="BackgroundImageFix" result="shape"/>
<feGaussianBlur stdDeviation="0.25" result="effect1_foregroundBlur_3805_156"/>
</filter>
<linearGradient id="paint0_linear_3805_156" x1="24.38" y1="6.65037" x2="9.03007" y2="26.2348" gradientUnits="userSpaceOnUse">
<stop stop-color="#FC8B23"/>
<stop offset="1" stop-color="#E67639"/>
</linearGradient>
<radialGradient id="paint1_radial_3805_156" cx="0" cy="0" r="1" gradientUnits="userSpaceOnUse" gradientTransform="translate(18.6207 3.22079) rotate(138.155) scale(3.77864 3.33393)">
<stop offset="0.300161" stop-color="#FFA13A"/>
<stop offset="1" stop-color="#FFA13A" stop-opacity="0"/>
</radialGradient>
<radialGradient id="paint2_radial_3805_156" cx="0" cy="0" r="1" gradientUnits="userSpaceOnUse" gradientTransform="translate(8.78958 2.02792) rotate(67.8105) scale(6.00715 5.30017)">
<stop offset="0.300161" stop-color="#FF942A"/>
<stop offset="1" stop-color="#FF942A" stop-opacity="0"/>
</radialGradient>
<radialGradient id="paint3_radial_3805_156" cx="0" cy="0" r="1" gradientUnits="userSpaceOnUse" gradientTransform="translate(24.9227 7.6322) rotate(-164.745) scale(2.39513 3.31637)">
<stop offset="0.300161" stop-color="#FFA13D"/>
<stop offset="1" stop-color="#FFA13D" stop-opacity="0"/>
</radialGradient>
<radialGradient id="paint4_radial_3805_156" cx="0" cy="0" r="1" gradientUnits="userSpaceOnUse" gradientTransform="translate(29.7543 11.1193) rotate(154.195) scale(4.24668 3.13649)">
<stop offset="0.300161" stop-color="#FFA13D"/>
<stop offset="1" stop-color="#FFA13D" stop-opacity="0"/>
</radialGradient>
<radialGradient id="paint5_radial_3805_156" cx="0" cy="0" r="1" gradientUnits="userSpaceOnUse" gradientTransform="translate(30.6786 18.3036) rotate(-173.379) scale(4.73709 2.66952)">
<stop offset="0.300161" stop-color="#FFA13D"/>
<stop offset="1" stop-color="#FFA13D" stop-opacity="0"/>
</radialGradient>
<radialGradient id="paint6_radial_3805_156" cx="0" cy="0" r="1" gradientUnits="userSpaceOnUse" gradientTransform="translate(26.4352 23.8074) rotate(-43.9639) scale(4.29693 4.13959)">
<stop stop-color="#E0762A"/>
<stop offset="1" stop-color="#E0762A" stop-opacity="0"/>
</radialGradient>
<radialGradient id="paint7_radial_3805_156" cx="0" cy="0" r="1" gradientUnits="userSpaceOnUse" gradientTransform="translate(6.52086 22.799) rotate(-127.747) scale(3.29424 3.17361)">
<stop stop-color="#E0762A"/>
<stop offset="1" stop-color="#E0762A" stop-opacity="0"/>
</radialGradient>
<radialGradient id="paint8_radial_3805_156" cx="0" cy="0" r="1" gradientUnits="userSpaceOnUse" gradientTransform="translate(2.02542 11.6655) rotate(25.2777) scale(3.34528 4.04325)">
<stop stop-color="#F0851D"/>
<stop offset="1" stop-color="#F0851D" stop-opacity="0"/>
</radialGradient>
<radialGradient id="paint9_radial_3805_156" cx="0" cy="0" r="1" gradientUnits="userSpaceOnUse" gradientTransform="translate(21.994 28.5783) rotate(-142.487) scale(3.90025 3.67954)">
<stop offset="0.336586" stop-color="#E3745B"/>
<stop offset="1" stop-color="#E3745B" stop-opacity="0"/>
</radialGradient>
<radialGradient id="paint10_radial_3805_156" cx="0" cy="0" r="1" gradientUnits="userSpaceOnUse" gradientTransform="translate(22.1324 9.75055) rotate(130.262) scale(17.4923 17.8249)">
<stop offset="0.17178" stop-color="#FFD13D"/>
<stop offset="1" stop-color="#DCA21C"/>
</radialGradient>
<radialGradient id="paint11_radial_3805_156" cx="0" cy="0" r="1" gradientUnits="userSpaceOnUse" gradientTransform="translate(9.422 16.5752) scale(3.21084)">
<stop offset="0.25" stop-color="#ED501F"/>
<stop offset="0.89541" stop-color="#F18A42" stop-opacity="0"/>
</radialGradient>
<radialGradient id="paint12_radial_3805_156" cx="0" cy="0" r="1" gradientUnits="userSpaceOnUse" gradientTransform="translate(22.6407 16.5752) scale(3.21084)">
<stop offset="0.130208" stop-color="#FB6738"/>
<stop offset="0.89541" stop-color="#F18A42" stop-opacity="0"/>
</radialGradient>
<linearGradient id="paint13_linear_3805_156" x1="11.1064" y1="19.1639" x2="21.4741" y2="19.1639" gradientUnits="userSpaceOnUse">
<stop stop-color="#31243C"/>
<stop offset="1" stop-color="#3F2950"/>
</linearGradient>
<linearGradient id="paint14_linear_3805_156" x1="21.4755" y1="17.9121" x2="20.8698" y2="18.4746" gradientUnits="userSpaceOnUse">
<stop stop-color="#665C6D"/>
<stop offset="1" stop-color="#665C6D" stop-opacity="0"/>
</linearGradient>
<radialGradient id="paint15_radial_3805_156" cx="0" cy="0" r="1" gradientUnits="userSpaceOnUse" gradientTransform="translate(11.5855 8.55243) rotate(127.543) scale(1.12326)">
<stop stop-color="#59525C"/>
<stop offset="1" stop-color="#59525C" stop-opacity="0"/>
</radialGradient>
<linearGradient id="paint16_linear_3805_156" x1="9.2714" y1="12.6387" x2="14.776" y2="12.6387" gradientUnits="userSpaceOnUse">
<stop stop-color="#2E2931"/>
<stop offset="1" stop-color="#362A3F"/>
</linearGradient>
<linearGradient id="paint17_linear_3805_156" x1="11.6454" y1="17.7217" x2="16.2735" y2="20.0605" gradientUnits="userSpaceOnUse">
<stop stop-color="#4E4753"/>
<stop offset="1" stop-color="#4E4753" stop-opacity="0"/>
</linearGradient>
<linearGradient id="paint18_linear_3805_156" x1="21.2694" y1="17.5685" x2="15.5686" y2="20.3883" gradientUnits="userSpaceOnUse">
<stop offset="0.0897352" stop-color="#5E5468"/>
<stop offset="1" stop-color="#5E5468" stop-opacity="0"/>
</linearGradient>
<linearGradient id="paint19_linear_3805_156" x1="21.1992" y1="8.42773" x2="23.4492" y2="9.86523" gradientUnits="userSpaceOnUse">
<stop stop-color="#60556A"/>
<stop offset="1" stop-color="#60556A" stop-opacity="0"/>
</linearGradient>
<linearGradient id="paint20_linear_3805_156" x1="24.6836" y1="11.2246" x2="22.7461" y2="7.97461" gradientUnits="userSpaceOnUse">
<stop stop-color="#5D4F69"/>
<stop offset="1" stop-color="#5D4F69" stop-opacity="0"/>
</linearGradient>
<linearGradient id="paint21_linear_3805_156" x1="8.38672" y1="11.9277" x2="8.48641" y2="8.94757" gradientUnits="userSpaceOnUse">
<stop stop-color="#524D53"/>
<stop offset="1" stop-color="#524D53" stop-opacity="0"/>
</linearGradient>
<linearGradient id="paint22_linear_3805_156" x1="13.4574" y1="13.4851" x2="11.051" y2="13.1151" gradientUnits="userSpaceOnUse">
<stop stop-color="#524D53"/>
<stop offset="1" stop-color="#5C5463" stop-opacity="0"/>
</linearGradient>
<linearGradient id="paint23_linear_3805_156" x1="21.6487" y1="13.3149" x2="18.1006" y2="12.8038" gradientUnits="userSpaceOnUse">
<stop stop-color="#61556C"/>
<stop offset="1" stop-color="#554A5F"/>
</linearGradient>
</defs>
</svg>
